<svg width="471" height="283" viewBox="0 0 471 283" fill="none" xmlns="http://www.w3.org/2000/svg">
<path d="M319.842 273.5C381.342 273.5 437.561 280 456.342 229.5C478.842 169 418.842 104.5 358.842 104.5C358.842 39.5 301.342 9 236.342 9C186.342 9 131.342 33 121.342 83C76.342 83 58.842 104.5 58.842 149.5C13.842 149.5 4.34202 185 10.842 229.5C18.2914 280.5 119.842 273.5 138.342 273.5" stroke="#1E88E5" stroke-width="18" stroke-linecap="square" stroke-linejoin="round"/>
<path d="M265.842 84.5002H195.842C190.319 84.5002 185.842 88.9773 185.842 94.5002V254.5C185.842 260.023 190.319 264.5 195.842 264.5H265.842C271.365 264.5 275.842 260.023 275.842 254.5V94.5002C275.842 88.9773 271.365 84.5002 265.842 84.5002Z" stroke="#031B4E" stroke-width="10" stroke-linecap="round" stroke-linejoin="round"/>
<path d="M243.842 104.5H208.842C206.081 104.5 203.842 106.739 203.842 109.5V115.5C203.842 118.262 206.081 120.5 208.842 120.5H243.842C246.603 120.5 248.842 118.262 248.842 115.5V109.5C248.842 106.739 246.603 104.5 243.842 104.5Z" fill="#031B4E"/>
<path d="M230.842 164.5L210.842 204.5H228.842L213.842 244.5L250.842 189.5H233.842L230.842 164.5Z" fill="#1E88E5"/>
<path d="M275.842 149.5C305.842 169.5 305.842 224.5 275.842 229.5" stroke="#031B4E" stroke-width="10" stroke-linecap="round" stroke-linejoin="round"/>
<path d="M286.842 264.5H174.842C172.633 264.5 170.842 266.291 170.842 268.5V278.5C170.842 280.709 172.633 282.5 174.842 282.5H286.842C289.051 282.5 290.842 280.709 290.842 278.5V268.5C290.842 266.291 289.051 264.5 286.842 264.5Z" fill="#031B4E"/>
</svg>
