<svg width="800" height="700" viewBox="0 0 800 700" fill="none" xmlns="http://www.w3.org/2000/svg">
<path d="M397 284C414.673 284 429 269.673 429 252C429 234.327 414.673 220 397 220C379.327 220 365 234.327 365 252C365 269.673 379.327 284 397 284Z" fill="#1E88E5"/>
<path d="M397 300V376" stroke="#1E88E5" stroke-width="8" stroke-linecap="round" stroke-dasharray="1 28"/>
<path d="M350 284L231 410" stroke="#1E88E5" stroke-width="8" stroke-linecap="round" stroke-dasharray="1 28"/>
<path d="M444 284L574 422" stroke="#1E88E5" stroke-width="8" stroke-linecap="round" stroke-dasharray="1 28"/>
<path d="M210 430H140C134.477 430 130 434.477 130 440V600C130 605.523 134.477 610 140 610H210C215.523 610 220 605.523 220 600V440C220 434.477 215.523 430 210 430Z" stroke="#031B4E" stroke-width="10" stroke-linecap="round" stroke-linejoin="round"/>
<path d="M188 450H153C150.239 450 148 452.239 148 455V461C148 463.761 150.239 466 153 466H188C190.761 466 193 463.761 193 461V455C193 452.239 190.761 450 188 450Z" fill="#031B4E"/>
<path d="M175 510L155 550H173L158 590L195 535H178L175 510Z" fill="#1E88E5"/>
<path d="M220 495C250 515 250 570 220 575" stroke="#031B4E" stroke-width="10" stroke-linecap="round" stroke-linejoin="round"/>
<path d="M231 610H119C116.791 610 115 611.791 115 614V624C115 626.209 116.791 628 119 628H231C233.209 628 235 626.209 235 624V614C235 611.791 233.209 610 231 610Z" fill="#031B4E"/>
<path d="M445 448C445 421.49 423.734 400 397.5 400C371.266 400 350 421.49 350 448V602C350 628.51 371.266 650 397.5 650C423.734 650 445 628.51 445 602V448Z" stroke="#031B4E" stroke-width="10" stroke-linecap="round" stroke-linejoin="round"/>
<path d="M415 455H380C374.477 455 370 459.477 370 465V550C370 555.523 374.477 560 380 560H415C420.523 560 425 555.523 425 550V465C425 459.477 420.523 455 415 455Z" fill="#031B4E"/>
<path d="M398 470L380 510H397L385 545L415 498H400L398 470Z" fill="#1E88E5"/>
<path d="M445 485C480 510 480 585 445 590" stroke="#031B4E" stroke-width="10" stroke-linecap="round" stroke-linejoin="round"/>
<path d="M451 650H344C341.791 650 340 651.791 340 654V664C340 666.209 341.791 668 344 668H451C453.209 668 455 666.209 455 664V654C455 651.791 453.209 650 451 650Z" fill="#031B4E"/>
<path d="M396.8 615.6C402.765 615.6 407.6 610.765 407.6 604.8C407.6 598.835 402.765 594 396.8 594C390.835 594 386 598.835 386 604.8C386 610.765 390.835 615.6 396.8 615.6Z" fill="#031B4E"/>
<path d="M603.2 517L588.8 545.8H602.3L593.3 571L615.8 535H605L603.2 517Z" fill="#1E88E5"/>
<path d="M634.7 445H570.8C564.835 445 560 449.835 560 455.8V573.7C560 579.665 564.835 584.5 570.8 584.5H634.7C640.665 584.5 645.5 579.665 645.5 573.7V455.8C645.5 449.835 640.665 445 634.7 445Z" stroke="#031B4E" stroke-width="9" stroke-linecap="round" stroke-linejoin="round"/>
<path d="M614 461.2H582.5C580.015 461.2 578 463.215 578 465.7V488.2C578 490.685 580.015 492.7 582.5 492.7H614C616.485 492.7 618.5 490.685 618.5 488.2V465.7C618.5 463.215 616.485 461.2 614 461.2Z" fill="#031B4E"/>
<path d="M645.5 481C672.5 503.5 672.5 566.5 645.5 571" stroke="#031B4E" stroke-width="9" stroke-linecap="round" stroke-linejoin="round"/>
<path d="M618.5 584.5H587V616H618.5V584.5Z" fill="#031B4E"/>
<path d="M646.4 616H559.1C557.112 616 555.5 617.612 555.5 619.6V625.9C555.5 627.888 557.112 629.5 559.1 629.5H646.4C648.388 629.5 650 627.888 650 625.9V619.6C650 617.612 648.388 616 646.4 616Z" fill="#031B4E"/>
<path d="M610 337C620 327 640 302 640 262C640 212 600 172 540 172C540 107 490 57 425 57C375 57 330 87 320 137C275 137 240 172 240 217C195 217 160 252 160 297C160 322 170 337 180 347" stroke="#031B4E" stroke-width="10" stroke-linecap="round" stroke-linejoin="round"/>
</svg>
